<svg width="37" height="31" viewBox="0 0 37 31" fill="none" xmlns="http://www.w3.org/2000/svg">
<path fill-rule="evenodd" clip-rule="evenodd" d="M14.6845 23.401C12.6242 26.5582 9.17174 30.5537 4.57783 30.5537C2.40614 30.5537 0.31794 29.6599 0.317871 25.7763C0.317698 15.8855 13.8211 0.57461 26.3501 0.574402C33.4776 0.574263 36.3179 5.51943 36.3179 11.1353C36.3179 18.3436 31.6403 26.5859 26.9909 26.5859C25.5153 26.5859 24.7913 25.7756 24.7913 24.4907C24.7913 24.1554 24.8468 23.7921 24.9584 23.401C23.3712 26.1109 20.3086 28.626 17.4409 28.626C15.3527 28.626 14.2948 27.3126 14.2947 25.4684C14.2947 24.7979 14.4339 24.0996 14.6845 23.401ZM23.9842 8.17922C22.85 8.18124 22.0769 9.14479 22.0793 10.5194C22.0817 11.894 22.8584 12.8823 23.9925 12.8803C25.0992 12.8784 25.872 11.8873 25.8696 10.5127C25.8672 9.1381 25.0909 8.17728 23.9842 8.17922ZM30 8.17267C28.8659 8.17468 28.0927 9.13824 28.0952 10.5128C28.0976 11.8874 28.8739 12.8758 30.0083 12.8738C31.1151 12.8718 31.8879 11.8808 31.8855 10.5061C31.883 9.13155 31.1067 8.17073 30 8.17267Z" fill="#9E7CE8" fill-opacity="0.87"/>
</svg>
